# xmcd
#
# Track frame offsets:
#	150
#	14732
#	28755
#	44167
#	59162
#	75782
#	90407
#	105670
#	119502
#	137007
#
# Disc length: 2083 seconds
#
# Revision: 0
# Processed by: cddbd v1.4PL0 Copyright (c) Steve Scherf et al.
# Submitted via: EasyCDDAExtractor 4.6.9.1
#
DISCID=8608210a
DTITLE=Foster Martin Band - Moonshine n' Moonlight
DYEAR=1900
DGENRE=Country
TTITLE0=Backroads of Summer
TTITLE1=Little Boogie Woogie
TTITLE2=Wishin' Well
TTITLE3=Forever
TTITLE4=Papa Joe
TTITLE5=Goin' Swingin' Tonight
TTITLE6=Missin' You
TTITLE7=Those Words
TTITLE8=Cowboy's Last Ride
TTITLE9=57' Chevy
EXTD=
EXTT0=
EXTT1=
EXTT2=
EXTT3=
EXTT4=
EXTT5=
EXTT6=
EXTT7=
EXTT8=
EXTT9=
PLAYORDER=
